<svg xmlns="http://www.w3.org/2000/svg" width="32" height="32" viewBox="0 0 32 32">
    <g fill="none" fill-rule="evenodd">
        <path fill="#E95E89" d="M29.858 24.866H2.08V20.01c1.798-.462 3.13-2.097 3.13-4.038 0-1.941-1.332-3.576-3.13-4.04V7.08h27.778v17.786zM30.898 5H1.04C.466 5 0 5.466 0 6.04v6.802c0 .574.466 1.04 1.04 1.04 1.152 0 2.09.939 2.09 2.09 0 1.153-.938 2.092-2.09 2.092-.574 0-1.04.466-1.04 1.038v6.804c0 .574.466 1.04 1.04 1.04h29.858c.574 0 1.04-.466 1.04-1.04V6.04c0-.574-.466-1.04-1.04-1.04z"/>
        <path fill="#EF9B9E" d="M22.783 21.36c.884 0 1.6.714 1.6 1.596 0 .881-.716 1.596-1.6 1.596-.883 0-1.6-.715-1.6-1.596 0-.882.717-1.596 1.6-1.596zm0-4.655c.884 0 1.6.713 1.6 1.595s-.716 1.597-1.6 1.597c-.883 0-1.6-.715-1.6-1.597s.717-1.595 1.6-1.595zm0-4.657c.884 0 1.6.715 1.6 1.597 0 .881-.716 1.596-1.6 1.596-.883 0-1.6-.715-1.6-1.596 0-.882.717-1.597 1.6-1.597zm0-4.656c.884 0 1.6.716 1.6 1.597 0 .882-.716 1.597-1.6 1.597-.883 0-1.6-.715-1.6-1.597 0-.881.717-1.597 1.6-1.597z"/>
    </g>
</svg>
