<svg xmlns="http://www.w3.org/2000/svg" width="32" height="32" viewBox="0 0 32 32">
    <g fill="none" fill-rule="evenodd">
        <path fill="#E95E89" d="M8.912 2.19c-3.704 0-6.719 3.014-6.719 6.718v.781c0 6.626 11.163 13.612 13.75 15.141 2.589-1.529 13.75-8.515 13.75-15.14v-.782c0-3.704-3.014-6.719-6.718-6.719-2.595 0-4.911 1.472-6.043 3.842L15.943 8.1l-.987-2.068C13.825 3.661 11.51 2.19 8.912 2.19zm7.031 25.157l-.528-.294C14.785 26.707.004 18.432.004 9.69c-.005-.25-.007-.355.003-.508L.004 9C.004 3.996 4.001 0 8.912 0c2.81 0 5.37 1.293 7.031 3.47C17.606 1.292 20.166 0 22.975 0c4.911 0 8.908 3.997 8.908 8.908v.781c0 8.743-14.78 17.018-15.41 17.364l-.53.294z" transform="translate(.06 3)"/>
        <path fill="#EF9B9E" d="M25.368 7.135c0 .928-.754 1.681-1.684 1.681-.93 0-1.684-.753-1.684-1.68 0-.929.754-1.681 1.684-1.681.93 0 1.684.752 1.684 1.68" transform="translate(.06 3)"/>
    </g>
</svg>
