<svg xmlns="http://www.w3.org/2000/svg" width="34" height="46" viewBox="0 0 34 46">
    <g fill="none" fill-rule="evenodd">
        <g>
            <g transform="translate(-80 -459) translate(80 459)">
                <ellipse cx="17" cy="44.389" fill="#030303" fill-opacity=".8" opacity=".2" rx="3.778" ry="1"/>
                <path fill="#EF9B9E" d="M17 43.444c11.333-11.46 17-20.304 17-26.531C34 7.573 26.389 0 17 0S0 7.572 0 16.913c0 6.227 5.667 15.07 17 26.531z"/>
                <g fill="#FFF">
                    <path d="M9.706.469v3.137c0 .882.37 1.622.882 2.025V.47h1.765l.002 5.16c.511-.402.88-1.142.88-2.023V.469H15v3.137c0 1.8-1.088 3.365-2.645 3.8l-.002 7.18h-1.765V7.407c-1.558-.435-2.647-2-2.647-3.801V.469h1.765zm-6.177 0c1.95 0 3.53 1.58 3.53 3.53 0 1.643-1.124 3.024-2.645 3.417l-.002 7.17H2.647v-7.17C1.125 7.025 0 5.643 0 3.998 0 2.048 1.58.468 3.53.468z" transform="translate(9 9)"/>
                </g>
            </g>
        </g>
    </g>
</svg>
