<svg xmlns="http://www.w3.org/2000/svg" width="32" height="32" viewBox="0 0 32 32">
    <g fill="none" fill-rule="evenodd">
        <path fill="#E95E89" d="M18.511.623c1.183-.71 2.598-.818 3.877-.298 1.28.521 2.215 1.586 2.565 2.923l.766 2.92 2.929.734c1.34.335 2.418 1.257 2.953 2.532.536 1.273.445 2.687-.254 3.88l-1.523 2.607 1.552 2.59c.712 1.184.819 2.598.299 3.878-.522 1.28-1.588 2.213-2.924 2.564l-2.92.766-.734 2.929c-.334 1.34-1.257 2.417-2.53 2.952-1.275.536-2.687.443-3.882-.253l-2.607-1.524-2.589 1.553c-.689.414-1.458.624-2.231.624-.555 0-1.112-.108-1.647-.327-1.278-.52-2.214-1.586-2.565-2.922L6.28 25.83l-2.929-.731C2.011 24.76.935 23.839.4 22.566c-.537-1.273-.445-2.69.253-3.882l1.524-2.605-1.554-2.591c-.71-1.185-.819-2.599-.297-3.877.522-1.28 1.587-2.213 2.922-2.564L6.17 6.28l.732-2.928C7.238 2.01 8.162.935 9.435.399c1.273-.537 2.688-.443 3.879.254l2.607 1.522zM21.583 2.3c-.65-.264-1.37-.212-1.974.153L16.477 4.33c-.335.2-.751.203-1.088.006l-3.152-1.842c-.346-.202-.728-.305-1.114-.305-.29 0-.582.059-.86.175-.65.274-1.12.822-1.292 1.505L8.085 7.41c-.094.377-.387.673-.763.773l-3.532.925c-.681.179-1.224.655-1.489 1.306-.265.653-.211 1.373.151 1.977l1.879 3.13c.2.335.203.752.007 1.088l-1.845 3.152c-.354.607-.402 1.327-.128 1.977.273.648.82 1.117 1.503 1.29l3.543.886c.379.095.674.387.772.763l.927 3.532c.18.68.655 1.224 1.306 1.49.655.264 1.372.21 1.976-.153l3.13-1.878c.335-.199.75-.204 1.088-.005l3.152 1.842c.607.354 1.327.404 1.977.128.648-.272 1.119-.82 1.29-1.503l.885-3.542c.095-.377.387-.674.763-.773l3.533-.927c.68-.179 1.224-.654 1.49-1.306.265-.651.21-1.371-.153-1.975l-1.877-3.13c-.2-.335-.204-.752-.007-1.088l1.843-3.152c.356-.607.402-1.33.13-1.977-.275-.648-.823-1.12-1.505-1.29l-3.542-.886c-.378-.095-.673-.387-.773-.763L22.89 3.79c-.178-.681-.654-1.224-1.307-1.49zm-6.25 5.25c2.289 0 4.018 1.73 4.018 3.858v8.364c0 .878-.305 1.677-.8 2.327.281.13.585.218.907.218v2.131c-1.026 0-1.982-.394-2.745-1.035-.386.13-.791.216-1.218.216h-.162c-2.127 0-3.857-1.729-3.857-3.857v-8.364c0-2.128 1.73-3.857 3.857-3.857zm.162 2.134c-1.114 0-1.887.772-1.887 1.724v8.364c0 .952.773 1.725 1.725 1.725h.162c.95 0 1.723-.773 1.723-1.725v-8.364c0-.952-.773-1.724-1.723-1.724z"/>
        <path fill="#EF9B9E" d="M26.6 21.994c-.883 0-1.6-.716-1.6-1.597 0-.882.717-1.597 1.6-1.597.883 0 1.6.715 1.6 1.597 0 .881-.717 1.597-1.6 1.597z"/>
    </g>
</svg>
