<svg xmlns="http://www.w3.org/2000/svg" width="32" height="32" viewBox="0 0 32 32">
    <g fill="none" fill-rule="evenodd">
        <path fill="#E95E89" d="M25.602 29.698H5.95c-1.013 0-1.837-.824-1.837-1.837 0-5.69 4.63-10.321 10.321-10.321h2.682c5.692 0 10.321 4.63 10.321 10.321 0 1.013-.822 1.837-1.835 1.837M9.227 8.862c0-3.612 2.937-6.55 6.55-6.55 3.61 0 6.549 2.938 6.549 6.55 0 3.611-2.94 6.548-6.55 6.548-3.612 0-6.55-2.937-6.55-6.548m11.487 7.1c2.246-1.567 3.726-4.16 3.726-7.1C24.439 4.085 20.552.2 15.777.2 11 .2 7.113 4.085 7.113 8.862c0 2.94 1.48 5.533 3.726 7.1C5.73 17.508 2 22.254 2 27.86c0 2.178 1.772 3.95 3.95 3.95h19.652c2.177 0 3.948-1.772 3.948-3.95 0-5.606-3.73-10.352-8.837-11.9"/>
        <path fill="#EF9B9E" d="M25.014 25.622c0 .896-.729 1.622-1.626 1.622-.897 0-1.625-.726-1.625-1.622 0-.895.728-1.622 1.625-1.622s1.626.727 1.626 1.622"/>
    </g>
</svg>
