<svg xmlns="http://www.w3.org/2000/svg" width="32" height="32" viewBox="0 0 32 32">
    <g fill="none" fill-rule="evenodd">
        <path fill="#E95E89" d="M21.64 18.927c-2.904 0-5.269 2.364-5.269 5.27 0 2.905 2.365 5.269 5.27 5.269 2.905 0 5.27-2.364 5.27-5.27 0-2.905-2.365-5.269-5.27-5.269m0 12.584c-4.033 0-7.314-3.281-7.314-7.314 0-4.033 3.28-7.315 7.314-7.315 4.033 0 7.314 3.282 7.314 7.315s-3.281 7.314-7.314 7.314" transform="translate(3)"/>
        <path fill="#EF9B9E" d="M23.804 25.612h-2.36c-.564 0-1.022-.457-1.022-1.022v-2.36c0-.564.458-1.022 1.022-1.022.565 0 1.023.458 1.023 1.022v1.337h1.337c.564 0 1.022.458 1.022 1.023s-.458 1.022-1.022 1.022M4.937 10.045c-.517 0-.937-.42-.937-.938v-.17C4 8.42 4.42 8 4.937 8h15.136c.517 0 .937.42.937.937v.17c0 .518-.42.938-.937.938H4.937zM4.94 16.045c-.52 0-.94-.42-.94-.938v-.17c0-.517.42-.937.94-.937h8.619c.519 0 .937.42.937.937v.17c0 .518-.418.938-.937.938h-8.62z" transform="translate(3)"/>
        <path fill="#E95E89" d="M.75 31.467c-.565 0-.75-.458-.75-1.022V1.022C0 .458.458 0 1.022 0h23.24c.563 0 1.021.458 1.021 1.022v12.466c0 .565-.458 1.023-1.02 1.023-.565 0-1.023-.458-1.023-1.023V2.045H2.045v27.377h9.897c.565 0 1.022.458 1.022 1.023 0 .564-.457 1.022-1.022 1.022H.75z" transform="translate(3)"/>
    </g>
</svg>
