<svg xmlns="http://www.w3.org/2000/svg" width="18" height="24" viewBox="0 0 18 24">
    <g fill="none" fill-rule="evenodd">
        <ellipse cx="9" cy="23.5" fill="#000" fill-opacity=".8" opacity=".2" rx="2" ry="1"/>
        <path fill="#EF9B9E" d="M9 23c6-6.067 9-10.75 9-14.046C18 4.009 13.97 0 9 0S0 4.009 0 8.954C0 12.25 3 16.933 9 23z"/>
        <path fill="#FFF" d="M10.176 5.25v1.673c0 .47.198.865.471 1.08V5.25h.941l.001 2.753c.273-.215.47-.61.47-1.08V5.25H13v1.673c0 .96-.58 1.795-1.41 2.027l-.002 3.83h-.94l-.001-3.83c-.831-.232-1.412-1.066-1.412-2.027V5.25h.941zm-3.294 0c1.04 0 1.883.843 1.883 1.882 0 .877-.6 1.614-1.411 1.823l-.001 3.824h-.941V8.955C5.6 8.746 5 8.01 5 7.132c0-1.04.843-1.882 1.882-1.882z"/>
    </g>
</svg>
