<svg xmlns="http://www.w3.org/2000/svg" width="32" height="32" viewBox="0 0 32 32">
    <g fill="none" fill-rule="evenodd">
        <path fill="#E95E89" d="M15.62.5c4.464 0 8.09 3.627 8.09 8.085l.001 2.147c2.601.644 4.535 2.998 4.535 5.795v9.049c0 3.292-2.676 5.97-5.967 5.97H8.97C5.676 31.546 3 28.868 3 25.576v-9.049c0-2.797 1.933-5.15 4.535-5.794V8.585C7.536 4.127 11.164.5 15.622.5zm6.66 12.076H8.968c-2.18 0-3.952 1.773-3.952 3.951v9.049c0 2.18 1.772 3.953 3.952 3.953h13.31c2.178 0 3.95-1.773 3.95-3.953v-9.049c0-2.178-1.772-3.951-3.95-3.951zM15.626 2.517c-3.353 0-6.074 2.723-6.074 6.068v1.966h12.142V8.585c0-3.345-2.723-6.068-6.068-6.068z"/>
        <path fill="#EF9B9E" d="M15.623 24.83c-.593 0-1.074-.48-1.074-1.075v-5.41c0-.594.481-1.075 1.074-1.075.594 0 1.075.481 1.075 1.075v5.41c0 .595-.48 1.076-1.075 1.076"/>
    </g>
</svg>
