<svg xmlns="http://www.w3.org/2000/svg" width="32" height="32" viewBox="0 0 32 32">
    <g fill="none" fill-rule="evenodd">
        <path fill="#E95E89" d="M16 0c8.837 0 16 7.163 16 16s-7.163 16-16 16S0 24.837 0 16 7.163 0 16 0zm0 2.08C8.325 2.08 2.08 8.325 2.08 16S8.325 29.92 16 29.92 29.92 23.675 29.92 16 23.675 2.08 16 2.08zm1.609 5.374c2.792 0 5.064 2.272 5.064 5.064 0 2.792-2.272 5.064-5.064 5.064h-4.072v6.875h-2.08V8.496h.008V7.454zm0 2.08h-4.066v5.968h4.066c1.644 0 2.984-1.338 2.984-2.984 0-1.645-1.34-2.984-2.984-2.984z"/>
        <path fill="#EF9B9E" d="M25.771 18.163c0 .882-.717 1.597-1.6 1.597-.883 0-1.6-.715-1.6-1.597s.717-1.597 1.6-1.597c.883 0 1.6.715 1.6 1.597"/>
    </g>
</svg>
