<svg version="1.1" id="Layer_1" xmlns="http://www.w3.org/2000/svg" x="0" y="0" viewBox="0 0 142 30" xml:space="preserve"><style>.st0{fill:none}.st1{fill:#e95e89}.st2{fill:#f09b9e}.st7{fill:#ea5d8a}.st8{fill:#f29ba1}</style><switch><g><path class="st0" d="M12.6 21.2l2.8 2.8.2.2c.1-.1.1-.2.2-.3.3-.6.4-1.2.4-1.8V8c0-2.3-1.9-4.2-4.3-4.2h-1.3c-.4 0-.9.1-1.3.2-1.1.3-2 1.1-2.5 2.2-.3.5-.4 1.1-.4 1.8v8.6c1.1.3 2.4.8 3.5 1.9l2.7 2.7zM7 21.1c-.2-.2-.4-.3-.7-.4v1.4c0 2.3 1.9 4.2 4.3 4.2h1.7L9.9 24 7 21.1zM5 5.4c-.1.4-.3.8-.4 1.2.1-.4.3-.8.4-1.2z"/><path class="st1" d="M9.4 3.9c.4-.1.8-.2 1.3-.2H12c2.4 0 4.3 1.9 4.3 4.2V22c0 .7-.2 1.3-.4 1.8 0 .1-.1.2-.2.3.5.4 1.1.7 1.7.8.1-.1.1-.2.2-.4.4-.8.6-1.7.6-2.7V8.1c0-3.4-2.7-6.3-6.2-6.3h-1.2c-1.4 0-2.6.4-3.6 1.2-1 .6-1.7 1.4-2.2 2.4l1.7.8c.6-1.1 1.5-1.9 2.7-2.3z"/><path class="st2" d="M5 5.4c.5-1 1.2-1.8 2.1-2.4 1-.7 2.3-1.2 3.6-1.2H12c3.5 0 6.2 2.9 6.2 6.3V22c0 1-.2 1.9-.6 2.7-.1.1-.1.2-.2.4.6.2 1.1.3 1.4.3h.6c.4-1 .7-2 .7-3.2V8c0-4.4-3.6-8-8.1-8h-1.3c-2.1 0-4 .8-5.4 2.1-.9.7-1.5 1.5-2 2.5l1.7.8zM2.6 16.3H1.2L0 18.1h2.6z"/><path class="st2" d="M21.3 25.3h-2.6c-.3 0-.8-.1-1.4-.3-.6-.2-1.2-.4-1.7-.8l-.2-.2-2.8-2.8-2.8-2.8c-1.1-1-2.4-1.6-3.5-1.9v2.1c1 .4 1.9.9 2.7 1.7l2.8 2.8 2.5 2.5.3.3c.4.4.8.6 1.3.8.8.3 1.6.4 1.9.4h4.7l-1.2-1.8z"/><path class="st1" d="M16.3 28.8c.5.1 1 .2 1.4.2-.5 0-.9-.1-1.4-.2zM0 18.1h2.6v2H0zM5 5.4l-1.7-.8 1.7.8zM14 27.8c.7.5 1.5.8 2.2 1-.6-.2-1.4-.5-2.2-1z"/><path class="st1" d="M14 27.8c-.6.2-1.2.3-1.9.3h-1.4c-3.5-.2-6.3-2.9-6.3-6.3V8c0-.5.1-.9.2-1.3.1-.5.3-.9.4-1.3l-1.7-.8c-.5 1-.8 2.1-.8 3.3V22.1c0 4.4 3.6 8 8.1 8H12c1.6 0 3-.4 4.3-1.2-.8-.3-1.5-.6-2.3-1.1z"/><path class="st2" d="M13.9 27.8s.1 0 0 0c-.2-.1-.4-.3-.6-.4.3.1.5.3.6.4z"/><path class="st2" d="M13.9 27.8c-.2-.1-.4-.3-.6-.4-.2-.2-.5-.4-.7-.7l-.4-.4h-1.6c-2.4 0-4.3-1.9-4.3-4.2V8c0-.6.2-1.2.4-1.8L5 5.4c-.1.4-.3.8-.4 1.2-.1.4-.1.9-.1 1.3V21.9c0 3.4 2.8 6.1 6.3 6.3h1.4c.6 0 1.2-.2 1.7-.4.1 0 .1 0 0 0z"/><path class="st2" d="M4.5 7.9c0-.4.1-.9.1-1.3-.1.5-.1.9-.1 1.3v8.4-8.4zM4.5 16.3v1.9zM4.5 18.2v1.9zM13.9 27.8c.1 0 .1 0 0 0 .1 0 .1 0 0 0 .1 0 .1 0 0 0 .1 0 0 0 0 0z"/><path class="st1" d="M9.9 24l2.3 2.3L9.9 24zM17.6 29h1.1-1.1zM12.7 26.7c.2.3.5.5.7.7l-.7-.7-.4-.4.4.4z"/><path class="st1" d="M18.3 27h-.4c-.4 0-1.2-.1-1.9-.4-.5-.2-1-.4-1.3-.8l-.3-.3-2.5-2.5L9 20.3c-.8-.8-1.8-1.3-2.7-1.6v2c.3.1.6.3.7.4L9.9 24l2.3 2.3.5.5.6.6c.2.2.4.3.6.4h.1c.8.5 1.5.8 2.2 1 .5.1 1 .2 1.4.2h5v-2h-4.3z"/><g><path class="st7" d="M29.7 10.7C29.7 8.4 31 7 33.6 7s3.9 1.4 3.9 3.7v7.8c0 .8-.2 1.5-.5 2.1.1.3.3.3.7.3h.3V23h-.4c-1.1 0-1.9-.4-2.2-1-.5.2-1.1.3-1.8.3-2.5 0-3.9-1.4-3.9-3.7v-7.9zm2.5 8c0 1.1.5 1.5 1.3 1.5s1.3-.4 1.3-1.5v-8.1c0-1.1-.5-1.5-1.3-1.5s-1.3.4-1.3 1.5v8.1zM42.8 7.2v11.5c0 1.1.5 1.4 1.3 1.4s1.3-.4 1.3-1.4V7.2h2.4v11.4c0 2.4-1.3 3.7-3.8 3.7s-3.8-1.4-3.8-3.7V7.2h2.6zM53.4 13.5H57v2.1h-3.6V20h4.5v2.1h-7.1V7.2h7.1v2.1h-4.5zM63.2 13.5h3.6v2.1h-3.6V20h4.5v2.1h-7V7.2h7v2.1h-4.5zM72.8 11.3v10.8h-2.4V7.2h3.3l2.6 8.9V7.2h2.3v14.9H76zM85.1 7c2.5 0 3.8 1.4 3.8 3.7v.5h-2.4v-.6c0-1.1-.5-1.5-1.3-1.5s-1.3.4-1.3 1.5.5 1.9 2.2 3.2c2.2 1.7 2.8 3 2.8 4.7 0 2.4-1.3 3.7-3.8 3.7s-3.8-1.4-3.8-3.7v-.9h2.4v1.1c0 1.1.5 1.4 1.3 1.4s1.3-.4 1.3-1.4c0-1.1-.5-1.9-2.2-3.2-2.2-1.7-2.8-3-2.8-4.7 0-2.4 1.3-3.8 3.8-3.8"/><path class="st8" d="M99.9 7c2.5 0 3.8 1.4 3.8 3.7v.5h-2.4v-.6c0-1.1-.5-1.5-1.3-1.5s-1.3.4-1.3 1.5.5 1.9 2.2 3.2c2.2 1.7 2.8 3 2.8 4.7 0 2.4-1.3 3.7-3.8 3.7s-3.8-1.4-3.8-3.7v-.9h2.4v1.1c0 1.1.5 1.4 1.3 1.4s1.3-.4 1.3-1.4c0-1.1-.5-1.9-2.2-3.2-2.2-1.7-2.8-3-2.8-4.7 0-2.4 1.3-3.8 3.8-3.8M111.8 17.8l1.8-10.6h3.6v14.9h-2.5V11.4l-1.8 10.7h-2.4l-1.9-10.6v10.6h-2.3V7.2h3.6zM120.2 7.2h2.6v14.9h-2.6zM125.8 7.2h2.6V20h4.3v2.1h-6.9zM137.5 13.5h3.6v2.1h-3.6V20h4.5v2.1h-7V7.2h7v2.1h-4.5z"/></g></g></switch></svg>