<svg xmlns="http://www.w3.org/2000/svg" width="32" height="32" viewBox="0 0 32 32">
    <g fill="none" fill-rule="evenodd">
        <g fill="#030303">
            <g>
                <path d="M21.25 27.714C20.77 30.2 18.565 32 16 32s-4.77-1.8-5.25-4.286H1l4.286-8.572v-8.57C5.286 4.733 10.083 0 16 0c5.917 0 10.714 4.733 10.714 10.572v8.57L31 27.714h-9.75zM16 29.856c1.365-.008 2.576-.867 3.017-2.142h-6.034c.441 1.275 1.652 2.134 3.017 2.142zm8.571-10.714v-8.57c0-4.67-3.837-8.458-8.571-8.458s-8.571 3.787-8.571 8.458v8.57L4.214 25.57h23.572l-3.215-6.428z" transform="translate(-356 -168) translate(356 168)"/>
            </g>
        </g>
    </g>
</svg>
