<svg xmlns="http://www.w3.org/2000/svg" width="32" height="32" viewBox="0 0 32 32">
    <g fill="none" fill-rule="evenodd">
        <g fill="#030303">
            <g>
                <path d="M17.69 4.292c.393.39.393 1.03 0 1.42L7.522 14.998H27.04c.552 0 1 .449 1 1 0 .553-.448 1-1 1H7.53l10.159 9.286c.365.362.39.93.078 1.33l-.078.09c-.393.39-1.031.39-1.423 0L4.286 16.763c-.21-.21-.3-.49-.284-.77-.015-.27.075-.55.284-.76l11.98-10.94c.393-.39 1.03-.39 1.424 0z" transform="translate(-908 -168) translate(908 168)"/>
            </g>
        </g>
    </g>
</svg>
