<svg xmlns="http://www.w3.org/2000/svg" width="32" height="32" viewBox="0 0 32 32">
    <g fill="none" fill-rule="evenodd">
        <g fill="#030303">
            <g>
                <path d="M19.033 20.136l.26-.258c2.008-2.01 5.277-2.009 7.287 0l.006.006 2.433 2.435c.36.36.62.783.783 1.237.263.735.264 1.547.004 2.285-.044.124-.096.246-.154.365l-.033.065c-.027.053-.057.105-.087.158l-.067.107c-.022.036-.046.07-.07.106-.072.102-.15.201-.234.297l-.042.044-.031.037-.007.007c-.022.027-.046.052-.071.077-.708.709-1.512 1.284-2.388 1.728-.377.191-.768.36-1.174.505-.026.006-.05.015-.075.024-.112.041-.227.08-.343.115l-.082.024c-.102.033-.207.063-.313.091l-.085.022-.086.022c-.1.026-.2.05-.302.073l-.151.032c-.096.02-.192.04-.29.058l-.288.049-.167.025-.262.035c-.245.03-.494.052-.746.068-.028.002-.057.003-.086.003l.086-.004c-.272.017-.545.026-.82.026-3.685 0-7.629-1.489-11.055-4.132l-.08-.063c-.102-.078-.203-.158-.304-.24l-.142-.116c-.111-.09-.221-.182-.33-.275l-.108-.092c-.115-.098-.228-.198-.341-.299-.321-.287-.638-.586-.948-.897l-.297-.304-.062-.065-.281-.296-.21-.23c-.335-.372-.656-.752-.963-1.14l-.113-.146C4.12 19.03 2.73 16.022 2.217 13.019c-.668-3.917.216-7.385 2.489-9.806l.07-.072.07-.072c.02-.023.043-.047.066-.07l.01-.01.06-.056.066-.056.003-.002.017-.015.052-.046-.054.046.056-.05.022-.02.014-.01.012-.01-.125.111c.924-.898 2.343-1.115 3.541-.627.009.005.017.009.026.012.122.05.241.108.358.173.039.022.078.045.116.069.195.12.38.261.55.423l.03.03 1.322 1.32.01.012 1.126 1.124.013.013c.095.095.186.194.273.295.821.96 1.232 2.155 1.232 3.35l-.008.283c-.066 1.224-.565 2.43-1.497 3.363l-.259.257c.214.508.461 1.005.74 1.486l.052.09.055.091h-.001l.001.001.026.044.104.167.02.033.015.024.123.19.032.048.005.008.127.188.038.054.136.193.005.006.018.026.124.168.042.055.147.19.027.035.078.096.045.057c.054.067.11.133.166.2l.044.05.019.023.063.072.066.077-.02-.025.068.078c.164.184.334.364.509.54l.01.01.401.383.126.115.002.002.214.187.065.057.016.012.026.022.14.116.038.032-.036-.029.035.03.144.115.078.062-.047-.038.14.108-.033-.025.049.037.011.01.05.037.052.038-.002-.001.054.04.012.009.016.011.034.026.048.035.005.004.212.152.054.037.038.026-.001-.002.142.097-.024-.016.023.016.038.025.017.01.146.096.032.02.003.002.045.028.002.002.188.117.073.043.003.001.144.086-.03-.018.056.034.054.03.292.163c.238.128.479.249.723.362l.373.165.03.012zm5.517 6.342l-.059.025-.041.02.1-.045zm1.002-.008l-.053.03-.051.03.104-.06zm-7.108-5.994l.042.019.07.03-.113-.05zm5.08 6.02l-.082.014h.013l.103-.02-.033.006zm-.328.335l.11-.024.25-.054-.13.028.073-.015.233-.058.12-.034.032-.008.022-.005.01-.004.184-.055.109-.037.054-.016.023-.01h.005l.036-.014.121-.043.023-.009.151-.058.056-.023.058-.024.039-.016.007-.003.08-.035.102-.044.14-.069-.05.024.051-.022.018-.009.157-.081.035-.019.104-.055.01-.005.082-.048.074-.042.047-.03-.038.025.063-.038.09-.055.016-.012.06-.039.058-.036c.05-.033.099-.066.147-.1l-.11.074.136-.093.081-.06.03-.021.127-.099.006-.004h.001l.04-.032.026-.022.07-.057.005-.004.026-.021.138-.122.097-.09-.07.066.072-.065.12-.116.011-.013.027-.029.062-.08c.122-.2.098-.445-.066-.608l-1.278-1.279-.012-.013-1.123-1.122c-.106-.106-.22-.2-.341-.28-.096-.064-.196-.12-.299-.168-.055-.026-.111-.049-.168-.07-.074-.027-.148-.05-.224-.07-.03-.007-.06-.015-.091-.021-.115-.024-.232-.04-.349-.045l-.019-.002h-.201c-.23.01-.458.056-.676.135-.06.022-.118.046-.176.073-.044.02-.086.042-.128.065l-.18.11c-.117.079-.227.17-.33.273l-.908.906-.016.018-.049.045-.03.024.004-.005-.053.044c-.038.03-.078.058-.119.083l-.03.016-.02.013.02-.013c-.037.024-.077.044-.118.063l-.039.016-.045.02.044-.02c-.04.019-.083.035-.126.048l-.037.01-.019.006-.018.005.037-.011c-.039.013-.079.022-.12.03l-.054.008c-.042.008-.085.013-.128.016h-.042l-.05.003c-.056 0-.113-.004-.17-.01l.17.01c-.066 0-.132-.005-.198-.015-.019-.002-.037-.005-.056-.009l-.04-.008-.03-.006c-.023-.005-.045-.011-.067-.018-.022-.006-.045-.013-.067-.021-.477-.162-.948-.349-1.41-.559-.14-.064-.281-.13-.421-.2-.792-.388-1.555-.846-2.28-1.366-.227-.163-.451-.333-.671-.508-.468-.374-.918-.776-1.344-1.201l-.013-.013c-1.744-1.744-3.075-3.867-3.847-6.14l-.008-.022.001.003-.003-.009-.009-.03-.007-.025-.011-.043-.004-.02-.014-.066c-.009-.05-.015-.102-.018-.152l-.003-.068v-.075l.005-.07.01-.097.004-.018.005-.03.002-.01c.007-.037.016-.075.027-.112l.007-.023.006-.026.02-.055.022-.056.007-.017.006-.014.007-.014c.015-.033.031-.066.05-.098l.02-.035c.004-.01.006-.014.009-.017l.011-.018c.015-.024.03-.047.047-.07l.041-.054c.035-.045.073-.088.114-.129l.904-.903c.876-.878.876-2.306-.001-3.183L9.013 6.417l-.012-.014L7.736 5.14c-.082-.08-.184-.126-.29-.138L7.338 5c-.106.011-.21.056-.291.136l-.018.017-.024.022-.083.088-.17.187c-.71.819-1.211 1.808-1.49 2.93-.039.15-.072.304-.101.46-.046.241-.082.488-.109.74l-.033.41c-.075 1.215.063 2.48.394 3.753.035.132.071.264.11.396l.009.032-.004-.011.004.013.044.148.01.031.04.124-.018-.054.072.222.054.163.04.114.152.41c.06.155.121.309.186.463l.013.029.173.395c.064.141.13.282.2.423l.228.45.244.448c.072.129.146.257.222.384l.037.061.012.022.102.166.15.24.03.045.023.037.039.059-.009-.012.025.037.025.039.009.014.055.083.002.001.068.103.017.024v.001l.044.065.1.145.034.05-.014-.022.13.182-.012-.013.073.1.064.088-.031-.045.084.115.183.243.01.015.057.073.089.113.064.083.095.117.031.04.133.162.06.071-.022-.025.193.227.103.119.047.054.15.17.012.012.254.277c.089.096.18.192.271.286l.234.24.342.332.096.092.021.018.004.005.018.015.093.09.062.056.051.047.114.102.079.072.008.007-.007-.007.098.086.004.005.085.074.028.024.04.034.014.013.04.034.028.024.006.005.044.037.12.101.031.026.025.02.017.014.001.001.006.005.004.004.017.013h-.001l.007.005.001.002.015.011.012.01.007.006-.002-.002.004.003.007.007.088.07.04.033.386.302.43.32.435.305.09.06.09.06c.06.041.121.08.181.12l.007.003.025.017.134.085h-.001l.17.107.043.026.002.001.016.01.037.023.074.044.081.049.03.018.011.006.093.054-.029-.017.411.236c2.443 1.349 5.022 2.022 7.41 1.871l.015-.001.375-.03c.186-.02.37-.044.55-.073l.249-.044z" transform="translate(-80 -536) translate(80 536)"/>
            </g>
        </g>
    </g>
</svg>
