<svg xmlns="http://www.w3.org/2000/svg" width="32" height="32" viewBox="0 0 32 32">
    <path fill="#EF9B9E" fill-rule="evenodd" d="M22.656 12.194l-7.454 9.06c-.21.256-.517.407-.846.417h-.037c-.314 0-.618-.13-.835-.362l-4.092-4.384c-.431-.46-.406-1.183.056-1.616.46-.429 1.185-.404 1.614.056l3.205 3.43 6.624-8.053c.4-.487 1.12-.56 1.608-.157.487.401.558 1.122.157 1.609m8.84 7.083l-2.012-3.354 1.974-3.38c1.183-2.023.092-4.616-2.181-5.184L25.48 6.41l-.993-3.785c-.595-2.266-3.2-3.328-5.21-2.122l-3.355 2.011L12.545.54C10.522-.643 7.931.45 7.361 2.722l-.95 3.795-3.784.994c-2.268.594-3.33 3.2-2.124 5.209l2.013 3.356-1.974 3.377C-.64 21.476.45 24.069 2.725 24.639l3.794.95.993 3.783c.595 2.267 3.2 3.33 5.21 2.123l3.355-2.013 3.378 1.975c2.023 1.183 4.616.09 5.184-2.182l.95-3.796 3.784-.993c2.268-.594 3.33-3.2 2.124-5.209"/>
</svg>
