<svg xmlns="http://www.w3.org/2000/svg" width="32" height="32" viewBox="0 0 32 32">
    <g fill="none" fill-rule="evenodd">
        <g fill="#E95E89">
            <g>
                <path d="M29 0c1.657 0 3 1.343 3 3v26c0 1.657-1.343 3-3 3H3c-1.657 0-3-1.343-3-3V3c0-1.657 1.343-3 3-3h26zm-7.04 7.593l-7.282 12.323-3.712-3.713c-.313-.313-.82-.313-1.132 0-.312.312-.312.819 0 1.131l4.443 4.443c.37.37.988.29 1.254-.16l7.806-13.21c.224-.38.098-.871-.282-1.096-.38-.225-.871-.098-1.096.282z" transform="translate(-264 -444) translate(264 444)"/>
            </g>
        </g>
    </g>
</svg>
