<svg xmlns="http://www.w3.org/2000/svg" width="32" height="32" viewBox="0 0 32 32">
    <g fill="none" fill-rule="evenodd">
        <g fill="#030303">
            <g>
                <path d="M25.531 4.731c.442-.441 1.159-.441 1.6 0 .442.442.442 1.159 0 1.6l-9.6 9.6 9.6 9.6c.442.442.442 1.159 0 1.6-.441.442-1.158.442-1.6 0l-9.6-9.6-9.6 9.6c-.41.41-1.057.44-1.501.088l-.099-.088c-.441-.441-.441-1.158 0-1.6l9.6-9.6-9.6-9.6c-.441-.441-.441-1.158 0-1.6.442-.441 1.159-.441 1.6 0l9.6 9.6 9.6-9.6z" transform="translate(-172 -168) translate(172 168)"/>
            </g>
        </g>
    </g>
</svg>
