<svg xmlns="http://www.w3.org/2000/svg" width="32" height="32" viewBox="0 0 32 32">
    <g fill="none" fill-rule="evenodd">
        <g fill="#030303">
            <g>
                <path d="M12.049 18.497l1.414 1.41L3.37 30H10c.553 0 1 .45 1 1s-.447 1-1 1H1.028c-.279 0-.531-.12-.713-.3C.122 31.54 0 31.3 0 31v-9c0-.55.447-1 1-1 .553 0 1 .45 1 1l-.031 6.58 10.08-10.083zm7.902 0l10.08 10.083L30 22c0-.55.447-1 1-1 .553 0 1 .45 1 1v9c0 .3-.122.54-.315.7-.182.18-.434.3-.713.3H22c-.553 0-1-.45-1-1s.447-1 1-1h6.629L18.537 19.907l1.414-1.41zM30.972 0c.279 0 .531.12.713.3.193.16.315.4.315.7v9c0 .55-.447 1-1 1-.553 0-1-.45-1-1l.031-6.58-10.08 10.083-1.414-1.41L28.63 2H22c-.553 0-1-.45-1-1s.447-1 1-1h8.972zM10 0c.553 0 1 .45 1 1s-.447 1-1 1H3.371l10.092 10.093-1.414 1.41L1.969 3.42 2 10c0 .55-.447 1-1 1-.553 0-1-.45-1-1V1C0 .7.122.46.315.3.497.12.749 0 1.028 0H10z" transform="translate(-816 -628) translate(816 628)"/>
            </g>
        </g>
    </g>
</svg>
