<svg xmlns="http://www.w3.org/2000/svg" width="32" height="32" viewBox="0 0 32 32">
    <g fill="none" fill-rule="evenodd">
        <g fill="#030303">
            <g>
                <path d="M22 0c.553 0 1 .448 1 1v1h4c2.209 0 4 1.791 4 4v22c0 2.209-1.791 4-4 4H5c-2.209 0-4-1.791-4-4V6c0-2.209 1.791-4 4-4h4V1c0-.552.447-1 1-1 .553 0 1 .448 1 1v1h10V1c0-.552.447-1 1-1zm7 10H3v18c0 1.104.896 2 2 2h22c1.104 0 2-.896 2-2V10zm-13.166 2c.349.003.685.194.836.518l1.56 3.315 3.633-.484c.352-.048.701.118.887.423.186.304.174.69-.029.982l-2.093 3.01 2.236 2.903c.218.283.248.667.077.98-.17.313-.512.49-.865.466l-3.652-.307-1.397 3.388c-.135.33-.453.549-.81.557h-.022c-.348 0-.666-.2-.814-.517l-1.56-3.316-3.632.485c-.358.05-.703-.12-.888-.424-.186-.304-.174-.69.03-.982l2.091-3.01-2.235-2.903c-.218-.282-.248-.667-.077-.98.17-.314.517-.493.865-.466l3.652.307 1.397-3.388c.136-.33.454-.548.81-.557zm.076 3.13l-.87 2.11c-.15.363-.52.579-.907.554l-2.275-.191 1.393 1.808c.239.31.25.74.025 1.063l-1.303 1.875 2.263-.302c.04-.006.08-.008.12-.008.345 0 .664.198.814.517l.971 2.066.87-2.111c.149-.363.517-.59.908-.554l2.274.19L18.8 20.34c-.239-.311-.25-.741-.026-1.063l1.304-1.874-2.263.302c-.389.052-.766-.154-.934-.51l-.971-2.065zM9 4H5c-1.104 0-2 .896-2 2v2h26V6c0-1.104-.896-2-2-2h-4v1c0 .553-.447 1-1 1-.553 0-1-.447-1-1V4H11v1c0 .553-.447 1-1 1-.553 0-1-.447-1-1V4z" transform="translate(-448 -260) translate(448 260)"/>
            </g>
        </g>
    </g>
</svg>
