<svg xmlns="http://www.w3.org/2000/svg" width="32" height="32" viewBox="0 0 32 32">
    <g fill="none" fill-rule="evenodd">
        <g fill="#030303">
            <g>
                <path d="M6 22c-1.657 0-3-1.343-3-3 0-1.656 1.343-3 3-3s3 1.344 3 3c0 1.657-1.343 3-3 3zm1-7.899V3c0-.552-.447-1-1-1-.553 0-1 .448-1 1v11.101c-2.282.463-4 2.48-4 4.899s1.718 4.436 4 4.899V29c0 .553.447 1 1 1 .553 0 1-.447 1-1v-5.101c2.282-.463 4-2.48 4-4.899s-1.718-4.436-4-4.899zM16 12c-1.657 0-3-1.343-3-3 0-1.656 1.343-3 3-3s3 1.344 3 3c0 1.657-1.343 3-3 3zm1-7.899V3c0-.552-.447-1-1-1-.553 0-1 .448-1 1v1.101c-2.282.463-4 2.48-4 4.899s1.718 4.436 4 4.899V29c0 .553.447 1 1 1 .553 0 1-.447 1-1V13.899c2.282-.463 4-2.48 4-4.899s-1.718-4.436-4-4.899zM26 26c-1.657 0-3-1.343-3-3 0-1.656 1.343-3 3-3s3 1.344 3 3c0 1.657-1.343 3-3 3zm1-7.899V3c0-.552-.447-1-1-1-.553 0-1 .448-1 1v15.101c-2.282.463-4 2.48-4 4.899s1.718 4.436 4 4.899V29c0 .553.447 1 1 1 .553 0 1-.447 1-1v-1.101c2.282-.463 4-2.48 4-4.899s-1.718-4.436-4-4.899z" transform="translate(-540 -168) translate(540 168)"/>
            </g>
        </g>
    </g>
</svg>
