<svg xmlns="http://www.w3.org/2000/svg" width="32" height="32" viewBox="0 0 32 32">
    <g fill="none" fill-rule="evenodd">
        <g fill="#030303">
            <g>
                <path d="M9.54 12.81l10.472 10.474-4.717 8.404c-.133.21-.371.33-.62.31-.33-.026-.586-.284-.618-.602l-.002-.121 1.165-11.256H6.578c-.125 0-.245-.035-.35-.099-.278-.17-.387-.507-.28-.8l.058-.122L9.54 12.81zM3.335 3.437c.446-.446 1.17-.446 1.616 0l23.505 23.505c.446.446.446 1.17 0 1.616-.447.447-1.17.447-1.616 0L3.336 5.055c-.448-.447-.448-1.17 0-1.617zM17.312.002c.329.034.578.3.602.618l-.001.121-1.473 11.241h8.776c.241 0 .464.13.582.34.095.167.112.365.052.544l-.06.129-3.5 6.232L11.843 8.775l4.835-8.47c.092-.142.231-.241.389-.284L17.187 0l.125.002z" transform="translate(-172 -628) translate(172 628)"/>
            </g>
        </g>
    </g>
</svg>
