<svg xmlns="http://www.w3.org/2000/svg" width="32" height="32" viewBox="0 0 32 32">
    <g fill="none" fill-rule="evenodd">
        <g fill="#030303">
            <g>
                <path d="M25.888 12.322c-.119-.21-.341-.34-.583-.34h-8.774L18.003.744c.039-.37-.23-.7-.6-.74-.251-.026-.497.09-.635.302L6.099 18.998c-.193.315-.096.728.22.922.105.065.227.1.35.1h8.643l-1.166 11.255c-.028.371.25.694.62.723.248.02.488-.1.621-.312l10.493-18.69c.123-.207.126-.465.008-.674" transform="translate(-80 -628) translate(80 628)"/>
            </g>
        </g>
    </g>
</svg>
