<svg xmlns="http://www.w3.org/2000/svg" width="32" height="32" viewBox="0 0 32 32">
    <g fill="none" fill-rule="evenodd">
        <g fill="#030303">
            <g>
                <path d="M9.143 5.448c-3.362 0-6.095 2.733-6.095 6.095.01.015.022.114.024.215.002.048-.005.184-.01.231-.007.105-.014.21-.014.316 0 5.476 8.745 11.765 12.952 14.244 4.206-2.483 12.952-8.778 12.952-14.244 0-.107-.007-.21-.015-.316-.004-.047-.01-.183-.009-.231.002-.093.012-.185.024-.276-.033-3.333-2.755-6.034-6.095-6.034-2.354 0-4.455 1.334-5.483 3.486-.252.529-.787.866-1.374.866-.587 0-1.122-.337-1.374-.866-1.028-2.152-3.129-3.486-5.483-3.486M16 29.828c-.254 0-.507-.063-.738-.19C14.64 29.294 0 21.098 0 12.305c0-.177.01-.352.023-.526-.01 0-.023-.116-.023-.236C0 6.5 4.1 2.4 9.143 2.4c2.688 0 5.152 1.152 6.857 3.116C17.705 3.552 20.17 2.4 22.857 2.4 27.9 2.4 32 6.5 32 11.543c0 .056-.01.189-.02.282.012.189.02.333.02.48 0 8.792-14.64 16.989-15.262 17.333-.23.127-.484.19-.738.19" transform="translate(-172 -536) translate(172 536)"/>
            </g>
        </g>
    </g>
</svg>
