<svg xmlns="http://www.w3.org/2000/svg" width="32" height="32" viewBox="0 0 32 32">
    <g fill="none" fill-rule="evenodd">
        <g fill="#030303">
            <g>
                <path d="M32 11.306c0-4.91-3.996-8.906-8.906-8.906-2.846 0-5.434 1.326-7.094 3.553C14.34 3.726 11.752 2.4 8.906 2.4 3.996 2.4 0 6.396 0 11.306l.022.283c-.011.167-.022.335-.022.506 0 8.774 14.871 17.098 15.505 17.448l.495.275.497-.275C17.129 29.193 32 20.87 32 12.095c0-.17-.011-.34-.024-.503l.024-.286z" transform="translate(-264 -536) translate(264 536)"/>
            </g>
        </g>
    </g>
</svg>
