<svg xmlns="http://www.w3.org/2000/svg" width="32" height="32" viewBox="0 0 32 32">
    <g fill="none" fill-rule="evenodd">
        <g fill="#030303">
            <g>
                <path d="M16 0c8.837 0 16 7.163 16 16s-7.163 16-16 16S0 24.837 0 16 7.163 0 16 0zm0 2.08C8.325 2.08 2.08 8.325 2.08 16S8.325 29.92 16 29.92 29.92 23.675 29.92 16 23.675 2.08 16 2.08zm0 10.72c.631 0 1.15.48 1.213 1.095l.006.124v8.762C17.22 23.454 16.674 24 16 24c-.632 0-1.15-.48-1.213-1.095l-.006-.124v-8.762c0-.673.545-1.219 1.219-1.219zM16 8c1.104 0 2 .896 2 2s-.896 2-2 2-2-.896-2-2 .896-2 2-2z" transform="translate(-816 -168) translate(816 168)"/>
            </g>
        </g>
    </g>
</svg>
