<svg xmlns="http://www.w3.org/2000/svg" width="32" height="32" viewBox="0 0 32 32">
    <g fill="none" fill-rule="evenodd">
        <g fill="#E95E89">
            <g>
                <path d="M20.535 23.12c.391.39.391 1.02 0 1.42-.39.39-1.023.39-1.414 0l-7.656-7.66c-.24-.24-.315-.57-.26-.88-.055-.31.02-.64.26-.88l7.656-7.66c.391-.39 1.024-.39 1.414 0 .391.4.391 1.03 0 1.42L13.414 16l7.121 7.12zM16 0C7.163 0 0 7.16 0 16s7.163 16 16 16 16-7.16 16-16S24.837 0 16 0z" transform="translate(-448 -352) translate(448 352)"/>
            </g>
        </g>
    </g>
</svg>
