<svg xmlns="http://www.w3.org/2000/svg" width="32" height="32" viewBox="0 0 32 32">
    <g fill="none" fill-rule="evenodd">
        <g fill="#030303">
            <g>
                <path d="M16 32c-1.995.01-12-15.03-12-20.064C4 7.67 6.287 3.73 10 1.599c3.713-2.132 8.287-2.132 12 0 3.713 2.132 6 6.072 6 10.337C28 16.902 17.964 32.01 16 32zm0-30.097C10.453 1.927 5.976 6.42 6 11.936c0 4.198 8.337 17.063 10 17.055 1.636.008 10-12.917 10-17.055.024-5.517-4.453-10.009-10-10.033zm0 15.049c-2.044.017-3.896-1.194-4.69-3.067-.794-1.873-.373-4.037 1.066-5.48 1.438-1.444 3.611-1.882 5.5-1.108C19.767 8.071 21 9.903 21 11.936c.006 1.324-.518 2.597-1.455 3.538-.938.94-2.213 1.472-3.545 1.478zm0-8.026c-1.226-.01-2.337.717-2.814 1.84-.476 1.124-.223 2.423.64 3.288.863.866 2.166 1.129 3.3.664C18.26 14.254 19 13.155 19 11.936c.007-1.655-1.336-3.002-3-3.01z" transform="translate(-356 -628) translate(356 628)"/>
            </g>
        </g>
    </g>
</svg>
