<svg xmlns="http://www.w3.org/2000/svg" width="32" height="32" viewBox="0 0 32 32">
    <g fill="none" fill-rule="evenodd">
        <g fill="#030303">
            <g>
                <path d="M24 17c0 .553.448 1 1 1s1-.447 1-1V9c0-.552-.448-1-1-1s-1 .448-1 1v8zm6 9.5L24 22l-8 6-8-3-6 3.75v-20L8 5l8 3 8-6 6 4.5v20zM24 0l-8 6-8-3-8 5v24l8-5 8 3 8-6 8 6V6l-8-6zm-7 13c-.552 0-1 .448-1 1v6c0 .553.448 1 1 1s1-.447 1-1v-6c0-.552-.448-1-1-1zm-8-3c-.552 0-1 .448-1 1v10c0 .553.448 1 1 1s1-.447 1-1V11c0-.552-.448-1-1-1z" transform="translate(-264 -628) translate(264 628)"/>
            </g>
        </g>
    </g>
</svg>
