<svg xmlns="http://www.w3.org/2000/svg" width="32" height="32" viewBox="0 0 32 32">
    <g fill="none" fill-rule="evenodd">
        <g fill="#030303">
            <g>
                <path d="M1.2 6h29.6c.663 0 1.2.497 1.2 1.111s-.537 1.111-1.2 1.111H1.2c-.663 0-1.2-.497-1.2-1.11C0 6.496.537 6 1.2 6zm0 8.889h29.6c.663 0 1.2.497 1.2 1.111s-.537 1.111-1.2 1.111H1.2C.537 17.111 0 16.614 0 16s.537-1.111 1.2-1.111zm0 8.889h29.6c.663 0 1.2.497 1.2 1.11 0 .615-.537 1.112-1.2 1.112H1.2C.537 26 0 25.503 0 24.889s.537-1.111 1.2-1.111z" transform="translate(-80 -168) translate(80 168)"/>
            </g>
        </g>
    </g>
</svg>
