<svg xmlns="http://www.w3.org/2000/svg" width="32" height="32" viewBox="0 0 32 32">
    <g fill="none" fill-rule="evenodd">
        <g fill="#030303">
            <g>
                <path d="M13.793 27.4l-10.65 3.79c-1.101.33-2.15-.65-1.893-1.77L4.6 18.207l16.971-16.97c.781-.782 2.047-.782 2.828 0L30.763 7.6c.782.78.782 2.047 0 2.828l-16.97 16.97zm7.071-21.214l4.95 4.95 2.121-2.121-4.95-4.95-2.121 2.121zM8.844 18.207l4.949 4.95 9.9-9.9-4.95-4.95-9.9 9.9zm4.949 9.192l-7.071-7.07-1.973 7.249 6.923-2.3 2.12 2.121z" transform="translate(-448 -536) translate(448 536)"/>
            </g>
        </g>
    </g>
</svg>
