<svg xmlns="http://www.w3.org/2000/svg" width="32" height="32" viewBox="0 0 32 32">
    <g fill="none" fill-rule="evenodd">
        <g fill="#030303">
            <g>
                <path d="M17.143 17.143v5.714c0 .629-.511 1.143-1.143 1.143s-1.143-.514-1.143-1.143v-5.714H9.143C8.51 17.143 8 16.629 8 16s.51-1.143 1.143-1.143h5.714V9.143C14.857 8.514 15.368 8 16 8s1.143.514 1.143 1.143v5.714h5.714c.632 0 1.143.514 1.143 1.143s-.51 1.143-1.143 1.143h-5.714zM0 16c0 8.84 7.163 16 16 16s16-7.16 16-16S24.837 0 16 0 0 7.16 0 16z" transform="translate(-80 -444) translate(80 444)"/>
            </g>
        </g>
    </g>
</svg>
