<svg xmlns="http://www.w3.org/2000/svg" width="32" height="32" viewBox="0 0 32 32">
    <g fill="none" fill-rule="evenodd">
        <g fill="#030303">
            <g>
                <path d="M16 0c8.837 0 16 7.163 16 16s-7.163 16-16 16S0 24.837 0 16 7.163 0 16 0zm0 2.08C8.325 2.08 2.08 8.325 2.08 16S8.325 29.92 16 29.92 29.92 23.675 29.92 16 23.675 2.08 16 2.08zm-4.535 5.374h6.144c2.792 0 5.064 2.272 5.064 5.064 0 2.719-2.154 4.944-4.845 5.06l-.22.004h-4.071v6.875h-2.08V8.496h.008V7.454h6.144zm12.706 9.112c.883 0 1.6.715 1.6 1.597s-.717 1.597-1.6 1.597c-.883 0-1.6-.715-1.6-1.597s.717-1.597 1.6-1.597zm-6.562-7.032h-4.066v5.968h4.066c1.644 0 2.984-1.338 2.984-2.984 0-1.645-1.34-2.984-2.984-2.984z" transform="translate(-356 -260) translate(356 260)"/>
            </g>
        </g>
    </g>
</svg>
