<svg xmlns="http://www.w3.org/2000/svg" width="32" height="32" viewBox="0 0 32 32">
    <g fill="none" fill-rule="evenodd">
        <g fill="#030303">
            <g>
                <path d="M28 0h-8v2h8c1.104 0 2 .896 2 2v8h2V4c0-2.209-1.791-4-4-4zm2 28c0 1.104-.896 2-2 2h-8v2h8c2.209 0 4-1.791 4-4v-8h-2v8zM2 28v-8H0v8c0 2.209 1.791 4 4 4h8v-2H4c-1.104 0-2-.896-2-2zM0 4v8h2V4c0-1.104.896-2 2-2h8V0H4C1.791 0 0 1.791 0 4z" transform="translate(-724 -628) translate(724 628)"/>
            </g>
        </g>
    </g>
</svg>
