<svg xmlns="http://www.w3.org/2000/svg" width="32" height="32" viewBox="0 0 32 32">
    <g fill="none" fill-rule="evenodd">
        <g fill="#030303">
            <g>
                <path d="M31 23v7c0 .552-.448 1-1 1h-7v-2h6v-6h2zM3 23v6h6v2H2c-.552 0-1-.448-1-1v-7h2zm23-6c.552 0 1 .448 1 1v8c0 .513-.386.936-.883.993L26 27h-8c-.552 0-1-.448-1-1v-8c0-.552.448-1 1-1h8zm-15 0v4h2v-3.967h2V25.2c0 .944-.727 1.719-1.652 1.794L13.2 27H6.8c-.944 0-1.719-.727-1.794-1.652L5 25.2v-6.4c0-.944.727-1.719 1.652-1.794L6.8 17H11zm-2 2H7v6h6v-2h-2c-1.054 0-1.918-.816-1.995-1.85L9 21v-2zm16 0h-6v6h2v-3c0-.552.448-1 1-1h3v-2zm0 4h-2v2h2v-2zM14 5c.552 0 1 .448 1 1v8c0 .552-.448 1-1 1H6c-.552 0-1-.448-1-1V6c0-.552.448-1 1-1h8zm12 0c.552 0 1 .448 1 1v7.2c0 .944-.727 1.719-1.652 1.794L25.2 15h-6.4v-2H25v-2h-3c-.552 0-1-.448-1-1V7h-2v3h-2V6.8c0-.944.727-1.719 1.652-1.794L18.8 5H26zM13 7H7v6h6V7zm-2.5 1.5c.552 0 1 .448 1 1v1c0 .552-.448 1-1 1h-1c-.552 0-1-.448-1-1v-1c0-.552.448-1 1-1h1zM25 7h-2v2h2V7zm5-6c.552 0 1 .448 1 1v7h-2V3h-6V1h7zM9 1v2H3v6H1V2c0-.552.448-1 1-1h7z" transform="translate(-264 -260) translate(264 260)"/>
            </g>
        </g>
    </g>
</svg>
