<svg xmlns="http://www.w3.org/2000/svg" width="32" height="32" viewBox="0 0 32 32">
    <g fill="none" fill-rule="evenodd">
        <g fill="#030303">
            <g>
                <path d="M28.667 12.6c-.883 0-1.6-.719-1.6-1.6 0-.883.717-1.6 1.6-1.6.882 0 1.6.717 1.6 1.6 0 .881-.718 1.6-1.6 1.6zm-3.495 8.867H6.828C5.472 19.52 4.527 17.208 4.003 14.7c1.256 1.164 2.91 1.833 4.664 1.833 2.297 0 4.43-1.141 5.709-3.052.319-.474.576-.988.767-1.526.044-.124.073-.254.109-.38.241.056.49.092.748.092.257 0 .507-.036.748-.092.036.128.065.256.11.381.19.537.447 1.05.766 1.525 1.279 1.911 3.412 3.052 5.71 3.052 1.753 0 3.407-.669 4.663-1.833-.524 2.508-1.469 4.821-2.825 6.767zm-17.639 4h16.934V23.2H7.533v2.267zM1.733 11c0-.883.718-1.6 1.6-1.6.883 0 1.6.717 1.6 1.6 0 .881-.717 1.6-1.6 1.6-.882 0-1.6-.719-1.6-1.6zM16 6.733c.883 0 1.6.718 1.6 1.6 0 .882-.717 1.6-1.6 1.6-.883 0-1.6-.718-1.6-1.6 0-.882.717-1.6 1.6-1.6zm12.667.934c-1.842 0-3.334 1.492-3.334 3.333 0 1.061.506 1.996 1.279 2.605-.91.759-2.061 1.195-3.279 1.195-1.717 0-3.313-.853-4.269-2.283-.237-.354-.43-.738-.572-1.14-.076-.216-.107-.445-.155-.672.615-.604.996-1.442.996-2.372C19.333 6.492 17.841 5 16 5c-1.841 0-3.333 1.492-3.333 3.333 0 .93.381 1.768.996 2.372-.048.227-.079.456-.155.672-.141.402-.335.786-.572 1.14-.956 1.43-2.552 2.283-4.27 2.283-1.217 0-2.367-.436-3.278-1.195.773-.609 1.279-1.544 1.279-2.605 0-1.841-1.492-3.333-3.334-3.333C1.492 7.667 0 9.159 0 11c0 1.408.876 2.605 2.11 3.095.537 3.281 1.758 6.292 3.577 8.753l.113.155v3.33c0 .479.388.867.867.867h18.666c.479 0 .867-.388.867-.867v-3.33l.113-.155c1.819-2.461 3.04-5.472 3.576-8.753C31.124 13.607 32 12.408 32 11c0-1.841-1.492-3.333-3.333-3.333z" transform="translate(-80 -260) translate(80 260)"/>
            </g>
        </g>
    </g>
</svg>
