<svg xmlns="http://www.w3.org/2000/svg" width="32" height="32" viewBox="0 0 32 32">
    <g fill="none" fill-rule="evenodd">
        <g fill="#030303">
            <g>
                <path d="M20.706 1v6.693c0 1.882.79 3.46 1.883 4.32V1h3.764l.003 11.01c1.092-.86 1.88-2.437 1.88-4.317V1H32v6.693c0 3.84-2.321 7.178-5.642 8.108l-.005 15.317h-3.765V15.803c-3.324-.93-5.647-4.268-5.647-8.11V1h3.765zM7.529 1c4.159 0 7.53 3.371 7.53 7.53 0 3.506-2.398 6.453-5.643 7.29l-.004 15.298H5.647V15.822C2.4 14.986 0 12.038 0 8.529 0 4.371 3.371 1 7.53 1z" transform="translate(-540 -536) translate(540 536)"/>
            </g>
        </g>
    </g>
</svg>
