<svg xmlns="http://www.w3.org/2000/svg" width="32" height="32" viewBox="0 0 32 32">
    <g fill="none" fill-rule="evenodd">
        <g fill="#E95E89">
            <g>
                <path d="M20.536 16.88l-7.657 7.66c-.391.39-1.024.39-1.415 0-.39-.4-.39-1.03 0-1.42L18.586 16l-7.122-7.12c-.39-.39-.39-1.02 0-1.42.391-.39 1.024-.39 1.415 0l7.657 7.66c.239.24.314.57.259.88.055.31-.02.64-.259.88zM16 0C7.164 0 0 7.16 0 16s7.164 16 16 16 16-7.16 16-16S24.836 0 16 0z" transform="translate(-540 -352) translate(540 352)"/>
            </g>
        </g>
    </g>
</svg>
