<svg xmlns="http://www.w3.org/2000/svg" width="32" height="32" viewBox="0 0 32 32">
    <g fill="none" fill-rule="evenodd">
        <g fill="#030303">
            <g>
                <path d="M23.86.6c.512 0 .937.378 1.01.87l.01.152v.943h1.605c2.94 0 5.349 2.294 5.506 5.174l.008.3v5.939c0 .564-.457 1.022-1.021 1.022-.512 0-.938-.378-1.01-.871l-.012-.151V8.039c0-1.81-1.424-3.296-3.223-3.422l-.248-.009h-1.604v2.515c0 .564-.458 1.022-1.02 1.022-.514 0-.938-.378-1.011-.87l-.011-.152V4.608H17.02v2.515c0 .564-.457 1.022-1.02 1.022-.513 0-.937-.378-1.01-.87l-.011-.152V4.608H9.162v2.515c0 .564-.457 1.022-1.02 1.022-.513 0-.938-.378-1.01-.87l-.012-.152V4.608H5.516c-1.832 0-3.336 1.408-3.464 3.187l-.009.244v17.814c0 1.812 1.426 3.298 3.225 3.424l.248.009h9.226c.565 0 1.022.457 1.022 1.022 0 .513-.378.937-.87 1.01l-.152.011H5.516c-2.939 0-5.35-2.295-5.508-5.176l-.008-.3V8.04c0-2.918 2.313-5.31 5.214-5.466l.302-.008H7.12v-.943C7.12 1.057 7.578.6 8.142.6c.512 0 .936.378 1.01.87l.01.152v.943h5.818v-.943C14.98 1.057 15.437.6 16 .6c.512 0 .936.378 1.01.87l.01.152v.943h5.818v-.943c0-.565.457-1.022 1.021-1.022zm.831 16.111c4.03 0 7.309 3.28 7.309 7.31 0 4.03-3.279 7.308-7.309 7.308s-7.309-3.279-7.309-7.309 3.279-7.309 7.309-7.309zm0 2.044c-2.903 0-5.266 2.362-5.266 5.265 0 2.903 2.363 5.266 5.266 5.266s5.266-2.363 5.266-5.266-2.363-5.265-5.266-5.265zm-.197 2.279c.565 0 1.022.457 1.022 1.022v1.336h1.336c.565 0 1.022.457 1.022 1.021 0 .565-.457 1.022-1.022 1.022h-2.358c-.564 0-1.021-.457-1.021-1.022v-2.357c0-.565.457-1.022 1.021-1.022zM7.945 22.84c.65 0 1.179.528 1.179 1.18 0 .65-.528 1.178-1.179 1.178-.652 0-1.179-.528-1.179-1.179 0-.65.527-1.179 1.179-1.179zm4.82 0c.652 0 1.179.528 1.179 1.18 0 .65-.527 1.178-1.18 1.178-.65 0-1.178-.528-1.178-1.179 0-.65.528-1.179 1.179-1.179zm0-5.305c.652 0 1.179.528 1.179 1.18 0 .65-.527 1.178-1.18 1.178-.65 0-1.178-.528-1.178-1.179 0-.65.528-1.179 1.179-1.179zm-4.82 0c.65 0 1.179.528 1.179 1.18 0 .65-.528 1.178-1.179 1.178-.652 0-1.179-.528-1.179-1.179 0-.65.527-1.179 1.179-1.179zm0-5.305c.65 0 1.179.529 1.179 1.18 0 .65-.528 1.178-1.179 1.178-.652 0-1.179-.528-1.179-1.179 0-.65.527-1.179 1.179-1.179zm5.108 0c.651 0 1.18.529 1.18 1.18 0 .65-.529 1.178-1.18 1.178-.652 0-1.178-.528-1.178-1.179 0-.65.526-1.179 1.178-1.179zm5.109 0c.65 0 1.179.529 1.179 1.18 0 .65-.528 1.178-1.18 1.178-.651 0-1.178-.528-1.178-1.179 0-.65.527-1.179 1.179-1.179zm5.894 0c.651 0 1.18.529 1.18 1.18 0 .65-.529 1.178-1.18 1.178-.652 0-1.179-.528-1.179-1.179 0-.65.527-1.179 1.18-1.179z" transform="translate(-448 -628) translate(448 628)"/>
            </g>
        </g>
    </g>
</svg>
