<svg xmlns="http://www.w3.org/2000/svg" width="32" height="32" viewBox="0 0 32 32">
    <g fill="none" fill-rule="evenodd">
        <g fill="#030303">
            <g>
                <path d="M28.52 22.134l-.993 1.732c-.274.479-.88.642-1.355.366l-2.755-1.604c-1.398 1.591-3.289 2.731-5.435 3.171V28c0 .553-.443 1-.99 1h-1.985c-.548 0-.99-.447-.99-1v-2.201c-2.147-.44-4.038-1.58-5.436-3.171l-2.755 1.604c-.475.276-1.08.113-1.355-.366l-.992-1.732c-.274-.478-.11-1.09.363-1.365l2.766-1.612c-.329-.994-.526-2.051-.526-3.157 0-1.106.197-2.162.526-3.157l-2.766-1.611c-.474-.276-.637-.887-.363-1.366l.992-1.732c.274-.478.88-.642 1.355-.366l2.755 1.604c1.398-1.591 3.29-2.731 5.435-3.171V4c0-.553.443-1 .991-1h1.984c.548 0 .991.447.991 1v2.201c2.146.44 4.037 1.58 5.435 3.171l2.755-1.604c.475-.276 1.081-.112 1.355.366l.992 1.732c.274.479.111 1.09-.363 1.366l-2.766 1.611c.33.995.526 2.051.526 3.157 0 1.106-.197 2.163-.526 3.157l2.766 1.612c.474.275.637.887.363 1.365zm1.487-2.598l-2.323-1.352c.13-.71.216-1.435.216-2.184 0-.748-.086-1.474-.216-2.184l2.323-1.352c.95-.552 1.273-1.776.725-2.732L28.75 6.268c-.547-.956-1.76-1.285-2.709-.732l-2.347 1.365c-1.096-.94-2.342-1.709-3.727-2.204V3c0-1.104-.888-2-1.984-2h-3.966c-1.096 0-1.984.896-1.984 2v1.697c-1.385.495-2.63 1.264-3.727 2.204L5.958 5.536c-.948-.553-2.162-.224-2.709.732L1.266 9.732c-.548.956-.223 2.18.725 2.732l2.323 1.352c-.13.71-.216 1.436-.216 2.184 0 .749.086 1.474.216 2.184l-2.323 1.352c-.948.552-1.273 1.776-.725 2.732l1.983 3.464c.547.956 1.761 1.285 2.71.732l2.346-1.365c1.096.94 2.342 1.71 3.727 2.204V29c0 1.104.888 2 1.984 2h3.966c1.096 0 1.984-.896 1.984-2v-1.697c1.385-.494 2.631-1.264 3.727-2.204l2.347 1.365c.948.553 2.162.224 2.71-.732l1.982-3.464c.548-.956.224-2.18-.725-2.732zM16 19c-1.643 0-2.975-1.343-2.975-3 0-1.656 1.332-3 2.975-3s2.975 1.344 2.975 3c0 1.657-1.332 3-2.975 3zm0-8c-2.739 0-4.958 2.238-4.958 5s2.22 5 4.958 5c2.74 0 4.96-2.238 4.96-5s-2.22-5-4.96-5z" transform="translate(-448 -168) translate(448 168)"/>
            </g>
        </g>
    </g>
</svg>
