<svg xmlns="http://www.w3.org/2000/svg" width="32" height="32" viewBox="0 0 32 32">
    <g fill="none" fill-rule="evenodd">
        <g fill="#030303">
            <g>
                <path d="M23.792 27c-1.726 0-3.125-1.399-3.125-3.125s1.399-3.125 3.125-3.125 3.125 1.399 3.125 3.125S25.517 27 23.792 27zM9.208 18.667c-1.726 0-3.125-1.4-3.125-3.125s1.4-3.125 3.125-3.125c1.726 0 3.125 1.4 3.125 3.125 0 1.726-1.399 3.125-3.125 3.125zM23.792 4.083c1.726 0 3.125 1.4 3.125 3.125 0 1.726-1.4 3.125-3.125 3.125-1.726 0-3.125-1.399-3.125-3.125s1.399-3.125 3.125-3.125zm0 14.584c-1.844 0-3.453.963-4.38 2.408l-5.578-3.188c.36-.708.583-1.497.583-2.345 0-.524-.101-1.02-.245-1.497l5.803-3.316c.951 1.031 2.303 1.688 3.817 1.688 2.877 0 5.208-2.332 5.208-5.209S26.669 2 23.792 2c-2.877 0-5.209 2.331-5.209 5.208 0 .524.101 1.02.245 1.498l-5.803 3.315c-.951-1.03-2.303-1.688-3.817-1.688C6.331 10.333 4 12.665 4 15.542s2.331 5.208 5.208 5.208c1.188 0 2.27-.413 3.146-1.081l-.02.04 6.307 3.604c-.021.187-.058.368-.058.562 0 2.877 2.332 5.208 5.209 5.208S29 26.753 29 23.875c0-2.877-2.331-5.208-5.208-5.208z" transform="translate(-724 -168) translate(724 168)"/>
            </g>
        </g>
    </g>
</svg>
