<svg xmlns="http://www.w3.org/2000/svg" width="32" height="32" viewBox="0 0 32 32">
    <g fill="none" fill-rule="evenodd">
        <g fill="#030303">
            <g>
                <path d="M24 1c3.314 0 6 2.686 6 6s-2.686 6-6 6c-1.715 0-3.261-.72-4.355-1.872L12.92 15.01c.053.322.081.652.081.989 0 .337-.028.667-.081.989l6.726 3.883C20.74 19.72 22.285 19 24 19c3.314 0 6 2.686 6 6s-2.686 6-6 6-6-2.686-6-6c0-.52.066-1.023.19-1.504l-6.5-3.752C10.59 21.119 8.897 22 7 22c-3.314 0-6-2.686-6-6s2.686-6 6-6c1.898 0 3.59.881 4.69 2.256l6.5-3.752C18.066 8.024 18 7.519 18 7c0-3.314 2.686-6 6-6zm0 21c-1.657 0-3 1.343-3 3s1.343 3 3 3 3-1.343 3-3-1.343-3-3-3zM7 13c-1.657 0-3 1.343-3 3s1.343 3 3 3 3-1.343 3-3-1.343-3-3-3zm17-9c-1.657 0-3 1.343-3 3s1.343 3 3 3 3-1.343 3-3-1.343-3-3-3z" transform="translate(-356 -536) translate(356 536)"/>
            </g>
        </g>
    </g>
</svg>
