<svg xmlns="http://www.w3.org/2000/svg" width="32" height="32" viewBox="0 0 32 32">
    <g fill="none" fill-rule="evenodd">
        <g fill="#030303">
            <g>
                <path d="M17 28.949V24c0-.552-.447-1-1-1-.553 0-1 .448-1 1v4.949C8.62 28.463 3.535 23.379 3.048 17H8c.553 0 1-.447 1-1 0-.553-.447-1-1-1H3.048C3.535 8.621 8.62 3.537 15 3.051V8c0 .553.447 1 1 1 .553 0 1-.447 1-1V3.051c6.38.486 11.465 5.57 11.952 11.949H24c-.553 0-1 .447-1 1 0 .553.447 1 1 1h4.952C28.465 23.379 23.38 28.463 17 28.949zM16 1C7.716 1 1 7.716 1 16c0 8.284 6.716 15 15 15 8.284 0 15-6.716 15-15 0-8.284-6.716-15-15-15z" transform="translate(-632 -628) translate(632 628)"/>
            </g>
        </g>
    </g>
</svg>
