<svg xmlns="http://www.w3.org/2000/svg" width="32" height="32" viewBox="0 0 32 32">
    <g fill="none" fill-rule="evenodd">
        <g fill="#030303">
            <g>
                <path d="M26.905 17.996c-1.474 0-2.675-1.201-2.675-2.677 0-.53-.43-.96-.958-.96-.53 0-.96.43-.96.96 0 1.476-1.2 2.677-2.677 2.677-1.474 0-2.676-1.201-2.676-2.677 0-.53-.43-.96-.959-.96-.53 0-.96.43-.96.96 0 1.476-1.2 2.677-2.675 2.677-1.475 0-2.676-1.201-2.676-2.677 0-.53-.43-.96-.96-.96-.528 0-.957.43-.957.96 0 1.476-1.202 2.677-2.676 2.677-.373 0-.732-.075-1.07-.223-.977-.426-1.607-1.39-1.607-2.454v-2.692H29.58v2.692c0 1.078-.642 2.045-1.634 2.466-.33.14-.68.21-1.042.21zm.495 5.815H4.6v-3.948c.165.018.326.05.496.05 1.477 0 2.794-.7 3.634-1.787.84 1.086 2.157 1.787 3.635 1.787 1.477 0 2.794-.7 3.635-1.787.841 1.086 2.158 1.787 3.635 1.787 1.478 0 2.796-.7 3.637-1.787.84 1.088 2.156 1.787 3.633 1.787.169 0 .331-.03.495-.049v3.947zm0 3.868c0 1.075-.874 1.949-1.948 1.949H6.548c-1.074 0-1.948-.874-1.948-1.949v-1.95h22.8v1.95zM7.79 3.92h16.422l4.527 6.79H3.26L7.79 3.92zm17.733-1.491c-.178-.267-.477-.428-.799-.428H7.276c-.32 0-.62.16-.799.428L.661 11.152c-.105.157-.161.343-.161.531v3.636c0 1.607.84 3.08 2.181 3.91v8.45c0 2.132 1.736 3.867 3.867 3.867h18.904c2.132 0 3.867-1.735 3.867-3.867v-8.45c1.343-.829 2.181-2.297 2.181-3.91v-3.636c0-.188-.056-.374-.16-.53l-5.817-8.725z" transform="translate(-172 -260) translate(172 260)"/>
            </g>
        </g>
    </g>
</svg>
