<svg xmlns="http://www.w3.org/2000/svg" width="32" height="32" viewBox="0 0 32 32">
    <g fill="none" fill-rule="evenodd">
        <g fill="#030303">
            <g>
                <path d="M2 16C2 8.269 8.268 2 16 2s14 6.269 14 14c0 7.732-6.268 14-14 14S2 23.732 2 16zm-2 0c0 8.837 7.163 16 16 16s16-7.163 16-16c0-8.836-7.163-16-16-16S0 7.164 0 16zM15 5v10.023H7c-.553 0-1 .449-1 1.001 0 .552.447.999 1 .999h9c.553 0 1-.447 1-.999V5c0-.553-.447-1-1-1-.552 0-1 .447-1 1z" transform="translate(-540 -628) translate(540 628) matrix(-1 0 0 1 32 0)"/>
            </g>
        </g>
    </g>
</svg>
