<svg xmlns="http://www.w3.org/2000/svg" width="32" height="32" viewBox="0 0 32 32">
    <g fill="none" fill-rule="evenodd">
        <g fill="#E95E89">
            <g>
                <path d="M24.536 20.54c-.391.39-1.024.39-1.415 0L16 13.41l-7.121 7.13c-.391.39-1.024.39-1.415 0-.39-.39-.39-1.03 0-1.42l7.657-7.66c.24-.24.568-.31.879-.25.311-.06.639.01.879.25l7.657 7.66c.39.39.39 1.03 0 1.42zM16 0C7.164 0 0 7.16 0 16s7.164 16 16 16 16-7.16 16-16S24.836 0 16 0z" transform="translate(-632 -352) translate(632 352)"/>
            </g>
        </g>
    </g>
</svg>
